<?xml version="1.0" standalone="no"?>
<!DOCTYPE svg PUBLIC "-//W3C//DTD SVG 20010904//EN"
 "http://www.w3.org/TR/2001/REC-SVG-20010904/DTD/svg10.dtd">
<svg version="1.0" xmlns="http://www.w3.org/2000/svg"
 width="1520.000000pt" height="1520.000000pt" viewBox="0 0 1520.000000 1520.000000"
 preserveAspectRatio="xMidYMid meet">
<metadata>
Created by potrace 1.14, written by Peter Selinger 2001-2017
</metadata>
<g transform="translate(0.000000,1520.000000) scale(0.100000,-0.100000)"
fill="#000000" stroke="none">
<path d="M77 11882 c-10 -10 -17 -22 -17 -27 0 -5 -6 -16 -14 -24 -26 -31 -36
-104 -32 -241 4 -120 9 -178 20 -245 2 -11 7 -38 11 -60 13 -76 54 -240 80
-315 14 -41 27 -79 28 -85 2 -5 9 -20 15 -32 7 -13 9 -23 5 -23 -4 0 -2 -4 5
-9 7 -4 14 -14 16 -22 7 -39 165 -318 207 -365 11 -11 19 -26 19 -32 0 -7 4
-12 9 -12 5 0 19 -16 32 -36 12 -20 32 -46 44 -58 12 -12 24 -27 26 -33 16
-42 388 -417 539 -543 68 -57 126 -107 147 -127 13 -13 26 -23 28 -23 3 0 13
-6 22 -14 93 -76 133 -106 142 -106 6 0 11 -3 11 -8 0 -4 18 -18 40 -32 22
-14 40 -28 40 -32 0 -4 10 -10 22 -14 12 -3 26 -10 32 -15 17 -14 86 -59 131
-85 77 -45 335 -174 335 -168 0 4 6 2 13 -4 18 -15 279 -116 327 -127 16 -4
127 -37 140 -42 8 -3 26 -8 40 -10 13 -2 30 -9 37 -15 7 -6 13 -8 13 -5 0 3
23 -1 52 -9 49 -15 68 -20 113 -29 11 -2 68 -15 128 -28 59 -14 107 -22 107
-19 0 2 7 -2 17 -9 9 -8 18 -12 20 -11 3 3 61 -5 108 -15 11 -2 36 -6 55 -8
19 -2 46 -6 60 -9 37 -7 150 -16 280 -22 157 -8 1137 -8 1230 0 41 3 102 8
135 11 33 3 74 7 90 9 41 6 129 20 135 21 3 1 25 5 50 9 44 8 58 11 103 21 12
3 33 7 47 10 43 8 63 13 135 30 39 9 81 19 95 21 45 9 195 45 210 51 8 4 18 5
23 5 4 -1 40 7 80 18 39 11 73 20 75 20 1 0 3 0 5 1 1 0 13 3 27 5 14 2 52 11
85 19 33 8 69 16 80 18 11 2 38 9 60 15 22 6 51 13 65 16 14 2 72 14 130 26
146 29 200 35 316 35 96 0 103 -1 140 -29 21 -16 40 -30 42 -32 2 -1 4 -8 6
-16 1 -7 5 -19 9 -25 10 -15 17 -45 23 -93 8 -67 25 -139 45 -192 11 -29 25
-66 31 -83 18 -48 109 -220 119 -223 5 -2 9 -8 9 -14 0 -31 132 -155 175 -165
5 -1 28 -7 50 -13 22 -6 80 -13 129 -16 49 -3 94 -8 100 -12 6 -3 19 -8 29 -9
36 -6 131 -61 181 -105 11 -10 25 -18 32 -18 7 0 14 -3 16 -7 9 -21 196 -112
313 -152 44 -16 82 -29 85 -29 3 0 12 -3 20 -6 8 -3 67 -17 130 -31 63 -14
142 -33 175 -41 33 -8 71 -16 85 -17 14 -1 27 -4 30 -7 3 -3 37 -16 77 -29 82
-27 96 -45 117 -152 2 -8 5 -21 8 -29 8 -21 36 -156 43 -210 2 -14 4 -25 5
-25 1 0 3 -11 5 -25 2 -14 6 -38 10 -55 4 -16 8 -43 10 -60 2 -16 6 -41 9 -55
2 -14 7 -47 10 -75 4 -27 9 -67 11 -89 3 -21 8 -63 10 -95 3 -31 8 -90 12
-131 8 -91 8 -430 -1 -520 -15 -170 -24 -228 -57 -375 -22 -98 -23 -103 -31
-125 -3 -8 -23 -69 -43 -135 -20 -66 -41 -131 -45 -145 -10 -28 -30 -104 -36
-135 -2 -11 -6 -31 -10 -45 -14 -64 -13 -191 2 -230 17 -42 79 -104 95 -95 5
4 9 2 9 -3 0 -9 212 -97 295 -122 152 -47 351 -138 401 -185 6 -5 22 -17 34
-25 21 -14 68 -53 125 -105 13 -11 44 -38 71 -60 26 -22 58 -49 70 -60 12 -11
43 -38 70 -60 247 -204 381 -326 677 -618 232 -229 357 -336 432 -371 43 -21
167 -31 195 -16 31 16 172 32 195 21 11 -6 34 -9 83 -12 18 -1 35 -5 37 -8 6
-11 129 -5 152 7 27 15 53 72 57 125 2 23 7 49 10 58 11 26 30 27 351 18 65
-1 109 2 123 10 56 30 71 180 31 307 -5 17 -11 40 -13 50 -3 10 -9 33 -16 49
-6 17 -11 31 -11 32 1 6 -113 228 -119 233 -3 3 -17 23 -30 45 -13 22 -26 42
-30 45 -3 3 -18 23 -35 45 -30 41 -111 124 -155 160 -75 60 -412 201 -780 325
-70 24 -105 37 -132 51 -10 5 -22 9 -27 9 -5 0 -22 5 -38 12 -15 6 -31 12 -35
12 -3 1 -10 4 -14 9 -4 4 -13 7 -20 7 -7 0 -34 10 -61 22 -26 12 -50 22 -53
23 -75 25 -301 141 -390 200 -98 65 -205 161 -254 228 -29 39 -89 161 -92 187
-1 8 -5 33 -10 55 -10 50 -10 192 -1 265 9 68 23 142 27 148 2 1 3 5 4 10 1 4
7 30 14 57 7 28 12 54 12 59 -1 5 2 12 7 15 4 3 19 40 32 81 13 41 31 93 41
115 10 23 22 53 25 68 4 15 11 30 16 33 5 3 7 10 4 15 -4 5 -1 9 4 9 6 0 11 7
11 15 0 8 11 38 24 67 53 116 119 274 119 286 0 6 4 12 9 12 4 0 8 8 8 18 0 9
7 26 15 36 8 10 12 22 10 26 -3 4 2 14 11 21 8 7 14 8 13 3 -6 -24 86 -206
129 -253 12 -14 22 -29 22 -33 0 -10 85 -49 122 -55 39 -6 217 -6 268 1 43 5
100 15 120 21 8 2 26 6 40 9 40 7 182 56 215 74 17 9 30 15 30 14 0 -7 78 26
141 59 96 50 115 61 138 82 11 9 34 27 50 38 95 65 189 248 210 409 4 31 12
71 32 160 17 79 150 250 194 250 6 0 10 4 10 10 0 5 15 17 33 26 17 9 34 20
37 23 6 7 61 38 150 83 36 19 76 41 90 50 14 8 50 29 80 45 117 63 340 210
413 271 79 66 228 222 297 312 19 25 43 54 52 64 10 11 18 23 18 27 0 4 7 14
15 22 15 16 41 58 76 122 34 63 35 64 77 53 20 -6 55 -18 77 -28 115 -50 168
-71 254 -99 51 -17 97 -28 102 -25 5 3 9 1 9 -5 0 -5 8 -10 18 -9 14 0 135
-33 182 -50 8 -3 17 -6 20 -7 54 -16 111 -36 135 -46 35 -14 30 -13 75 -23 19
-5 40 -11 45 -14 6 -4 15 -7 20 -8 6 -1 48 -9 95 -18 130 -25 176 -30 292 -28
147 2 188 22 303 157 41 49 45 54 45 65 0 5 4 10 9 10 4 0 23 32 41 71 38 84
37 117 -12 206 -25 46 -207 300 -258 360 -5 7 -10 16 -10 22 0 5 -4 11 -8 13
-4 2 -37 45 -72 96 -36 51 -76 108 -90 127 -14 18 -32 43 -40 55 -34 51 -197
220 -212 220 -4 0 -19 11 -34 25 -15 14 -38 28 -51 31 -13 4 -23 10 -23 15 0
5 -4 8 -8 6 -5 -1 -27 15 -50 36 -23 20 -39 37 -36 37 3 0 -4 13 -15 28 -22
31 -71 169 -71 200 0 10 -3 22 -7 25 -3 4 -7 17 -8 30 -1 12 -5 38 -9 57 -4
19 -9 51 -11 70 -2 19 -7 46 -9 60 -3 14 -8 43 -11 65 -10 80 -16 121 -26 185
-6 36 -12 81 -14 100 -2 19 -7 47 -10 63 -6 30 -10 53 -20 112 -6 38 -29 121
-42 155 -4 8 -7 17 -7 20 -4 23 -67 113 -103 147 -73 71 -115 70 -187 -4 -40
-42 -107 -154 -112 -187 -1 -6 -4 -37 -8 -68 -6 -48 -11 -58 -27 -58 -31 0
-320 159 -394 217 -33 26 -137 93 -144 93 -5 0 -11 4 -13 8 -6 16 -98 52 -132
52 -92 0 -114 -99 -65 -300 6 -25 14 -54 19 -65 4 -11 13 -33 18 -50 6 -16 14
-39 18 -50 4 -11 8 -22 8 -25 3 -15 54 -136 88 -207 21 -46 38 -86 37 -89 0
-4 3 -10 8 -13 4 -3 23 -35 42 -71 77 -147 173 -262 272 -326 66 -43 95 -83
70 -98 -4 -3 -36 -8 -69 -11 -34 -3 -83 -12 -109 -21 -26 -9 -52 -17 -58 -18
-56 -10 -442 -213 -453 -238 -2 -5 -10 -8 -17 -8 -8 0 -20 -6 -27 -12 -7 -7
-34 -29 -58 -48 -25 -19 -46 -38 -48 -42 -2 -4 -8 -8 -14 -8 -5 0 -16 -7 -24
-15 -9 -8 -18 -15 -22 -15 -4 0 -60 52 -124 115 -65 63 -122 115 -127 115 -6
0 -14 6 -18 13 -25 41 -322 175 -421 190 -12 2 -25 6 -28 10 -4 4 -18 7 -31 7
-21 0 -171 66 -183 81 -3 3 -20 14 -39 24 -19 9 -39 21 -45 26 -6 5 -54 37
-106 72 -52 35 -147 101 -210 148 -63 46 -144 105 -180 129 -36 25 -66 48 -68
53 -2 4 -10 7 -17 7 -7 0 -15 4 -17 8 -2 4 -46 35 -98 67 -52 33 -97 62 -100
65 -15 16 -72 40 -80 35 -6 -4 -9 -1 -8 5 4 19 -374 208 -447 225 -5 1 -19 5
-30 9 -11 5 -31 12 -45 16 -14 4 -34 11 -45 16 -11 4 -24 8 -30 9 -5 2 -36 10
-67 19 -31 10 -69 19 -84 22 -15 3 -34 9 -43 13 -9 5 -32 11 -51 15 -38 7 -67
13 -102 22 -88 21 -238 45 -248 39 -5 -3 -10 -2 -10 2 0 5 -15 9 -32 10 -18 1
-100 4 -183 8 -82 4 -153 9 -157 11 -3 2 -9 1 -12 -4 -3 -5 -27 -6 -53 -2 -26
3 -65 3 -85 -1 -20 -3 -42 -2 -49 2 -6 4 -26 3 -43 -2 -20 -6 -32 -5 -34 1 -2
6 -8 7 -14 4 -6 -4 -36 -8 -67 -10 -79 -4 -134 -12 -221 -35 -99 -25 -384
-122 -388 -132 -2 -4 -8 -4 -13 -1 -6 3 -15 1 -22 -4 -7 -5 -23 -13 -37 -17
-22 -6 -55 -19 -115 -46 -19 -8 -74 -30 -85 -34 -25 -9 -219 -96 -359 -161
-51 -24 -97 -44 -102 -44 -5 0 -9 -5 -9 -10 0 -6 -3 -9 -8 -8 -4 2 -60 -23
-125 -55 -64 -31 -120 -57 -125 -58 -4 0 -15 -8 -26 -17 -10 -9 -21 -17 -25
-16 -6 1 -117 -51 -161 -76 -14 -8 -27 -15 -30 -15 -11 -2 -196 -97 -204 -106
-6 -5 -18 -9 -27 -9 -10 0 -19 -3 -21 -7 -3 -7 -494 -256 -508 -259 -3 0 -49
-21 -103 -47 -55 -26 -100 -47 -102 -47 -2 0 -37 -16 -78 -35 -41 -19 -81 -35
-89 -35 -8 0 -18 -4 -23 -8 -9 -8 -162 -75 -175 -78 -3 0 -14 -4 -25 -9 -11
-4 -42 -17 -70 -28 -27 -10 -61 -24 -75 -30 -14 -5 -29 -11 -35 -13 -5 -1 -23
-8 -40 -15 -16 -6 -34 -13 -40 -15 -5 -1 -73 -26 -150 -54 -77 -29 -144 -53
-150 -54 -5 -1 -41 -13 -80 -26 -38 -13 -72 -25 -75 -25 -16 -2 -188 -59 -202
-66 -10 -5 -24 -9 -33 -9 -8 0 -35 -7 -61 -16 -41 -14 -62 -19 -109 -28 -5 -1
-16 -5 -22 -9 -7 -5 -13 -6 -13 -3 0 2 -15 0 -33 -5 -32 -10 -53 -15 -102 -23
-14 -3 -33 -7 -43 -10 -16 -5 -45 -9 -129 -21 -21 -3 -47 -7 -58 -10 -38 -7
-160 -18 -217 -19 -32 -1 -58 -3 -58 -6 0 -6 -374 -2 -440 4 -25 2 -72 7 -105
10 -33 3 -76 8 -95 11 -19 2 -55 7 -79 10 -25 3 -47 8 -50 9 -3 2 -26 7 -51
10 -25 3 -54 8 -65 10 -79 16 -184 42 -260 63 -49 14 -96 26 -102 26 -7 0 -13
5 -13 10 0 6 -3 8 -6 5 -5 -5 -115 28 -164 49 -8 3 -22 7 -31 9 -8 2 -29 10
-45 19 -16 8 -37 15 -46 15 -9 0 -19 4 -22 9 -3 5 -17 12 -31 15 -46 12 -350
158 -490 236 -38 22 -88 49 -110 61 -37 20 -256 162 -280 181 -5 5 -28 22 -50
39 -54 41 -114 90 -141 114 -13 11 -49 43 -80 70 -138 121 -423 418 -484 505
-34 48 -42 59 -62 78 -10 9 -18 20 -18 23 0 4 -23 44 -50 88 -28 44 -50 87
-50 94 0 7 -4 17 -9 23 -7 8 -44 98 -47 117 -1 4 -3 9 -4 12 -4 8 -6 18 -15
70 -4 28 -10 59 -12 70 -3 11 -7 74 -9 140 -3 66 -6 134 -8 150 -2 17 -4 40
-5 52 -1 21 -25 53 -40 53 -4 0 -15 -8 -24 -18z"/>
</g>
</svg>
